<?xml version="1.0" encoding="iso-8859-1"?>
<!-- Generator: Adobe Illustrator 17.1.0, SVG Export Plug-In . SVG Version: 6.00 Build 0)  -->
<!DOCTYPE svg PUBLIC "-//W3C//DTD SVG 1.1//EN" "http://www.w3.org/Graphics/SVG/1.1/DTD/svg11.dtd">
<svg version="1.1" id="Capa_1" xmlns="http://www.w3.org/2000/svg" xmlns:xlink="http://www.w3.org/1999/xlink" x="0px" y="0px"
	 viewBox="0 0 211.076 211.076" style="enable-background:new 0 0 211.076 211.076;" xml:space="preserve">
<path d="M105.47,211.076c-37.51,0-68.027-30.517-68.027-68.027v-0.987h-1.488c-11.568,0-20.979-9.411-20.979-20.979v-9.606
	c0-11.567,9.411-20.979,20.979-20.979h1.488V59.579c0-11.853,5.486-23.12,14.753-30.465c-0.333-1.606-0.506-3.262-0.506-4.943
	c0-4.318,2.3-8.755,6.153-11.867c0.039-0.031,0.078-0.062,0.118-0.091l2.334-1.666c0.083-0.059,0.169-0.112,0.258-0.161
	c0.363-0.197,0.774-0.445,1.245-0.728c2.199-1.319,5.523-3.313,11.019-4.99c7.577-2.485,15.577-3.941,24.416-4.438
	c33.89-1.896,64.06,8.08,73.374,24.27c0.003,0.007,0.007,0.013,0.01,0.019c1.203,1.946,2,3.408,2.775,5.075
	c7.619,16.387,1.423,33.586,0.107,36.861v24.042h1.624c11.568,0,20.979,9.411,20.979,20.979v9.606
	c0,11.568-9.411,20.979-20.979,20.979h-1.624v0.987C173.497,180.559,142.98,211.076,105.47,211.076z M42.442,139.561v3.487
	c0,34.753,28.274,63.027,63.027,63.027c34.754,0,63.028-28.274,63.028-63.027v-21.19h-4.429c-0.668,0-1.308-0.268-1.778-0.742
	c-0.47-0.476-0.729-1.118-0.722-1.786c0.003-0.29,0.303-29.082-1.925-37.997c-2.014-8.056-7.763-11.271-8.006-11.404
	c-0.596-0.325-1.041-0.883-1.22-1.537s-0.092-1.357,0.254-1.941c0.033-0.055,3.431-5.875,3.581-11.457
	c0.023-0.87-3.563-2.989-8.306-4.339c-5.414-1.157-9.58-1.096-9.681-1.095c-0.019,0.001-0.042,0.001-0.061,0.001h-52
	c-7.519,0-14.017-1.292-19.313-3.841c-0.886-0.427-1.739-0.908-2.555-1.44c-2.334,2.7-5.657,7.304-5.648,10.775
	c0.014,5.524,3.523,11.303,3.559,11.36c0.361,0.589,0.464,1.302,0.283,1.968s-0.63,1.229-1.24,1.553
	c-0.231,0.126-5.98,3.342-7.994,11.397c-2.229,8.915-1.929,37.707-1.925,37.997c0.007,0.668-0.252,1.311-0.722,1.786
	c-0.47,0.475-1.11,0.742-1.778,0.742h-4.429V139.561z M173.634,137.061h1.488c8.811,0,15.979-7.168,15.979-15.979v-9.606
	c0-8.811-7.168-15.979-15.979-15.979h-1.488V137.061z M35.954,95.497c-8.811,0-15.979,7.168-15.979,15.979v9.606
	c0,8.812,7.168,15.979,15.979,15.979h1.488V95.497H35.954z M166.584,116.858h1.913V66.592c-2.173-4.739-5.537-8.16-9.288-10.631
	c-0.302,4.367-1.991,8.548-3.145,10.954c2.525,1.973,6.663,6.138,8.429,13.204C166.493,88.117,166.607,109.46,166.584,116.858z
	 M42.442,116.858h1.913c-0.023-7.398,0.092-28.741,2.091-36.738c1.761-7.043,5.876-11.204,8.404-13.185
	c-1.272-2.576-3.15-7.171-3.162-11.869c-0.013-5.307,4.219-11.004,6.778-13.963c-1.923-1.964-3.501-4.273-4.648-6.826
	c-7.177,6.391-11.377,15.622-11.377,25.302V116.858z M136.65,44.476c3.39,0,23.563,0.638,33.743,15.312
	c0.355-1.348,0.71-2.914,1.002-4.646c-2.933-2.857-13.529-12.211-29.297-15.209c-11.023-2.096-24.043-1.283-36.633-0.499
	c-9.361,0.584-19.039,1.188-27.616,0.536c-8.314-0.632-14.077-2.802-18.02-5.228c1.809,2.759,4.323,5.017,7.344,6.452
	c4.59,2.181,10.316,3.287,17.021,3.287h52C136.258,44.479,136.413,44.476,136.65,44.476z M125.356,33.598
	c6.125,0,12.095,0.361,17.675,1.422c13.856,2.635,23.881,9.605,29.015,13.95c0.089-2.201,0.025-4.528-0.271-6.915
	c-6.971-6.976-19.331-11.842-35.824-14.089c-8.736-1.191-18.695,0.164-29.239,1.599c-10.625,1.445-21.612,2.94-31.5,1.64
	c-10.966-1.442-15.992-5.392-18.282-8.933c-0.158,0.638-0.241,1.275-0.241,1.898c0,0.235,0.004,0.47,0.013,0.703
	c0.811,1.57,5.428,8.887,21.526,10.109c8.231,0.626,17.313,0.059,26.926-0.54C111.869,34.024,118.704,33.598,125.356,33.598z
	 M128.72,22.519c2.712,0,5.358,0.146,7.906,0.492c13.973,1.905,25.27,5.678,33.214,11.042c-0.293-0.786-0.62-1.57-0.983-2.352
	c-0.705-1.517-1.44-2.857-2.538-4.627c-0.019-0.031-0.039-0.064-0.058-0.099c-8.288-14.376-37.194-23.52-68.75-21.754
	c-8.398,0.472-15.979,1.849-23.177,4.209c-0.04,0.014-0.087,0.027-0.128,0.039c-4.84,1.478-7.847,3.281-9.837,4.476
	c-0.48,0.288-0.907,0.543-1.289,0.755l-2.152,1.536c-0.292,0.239-0.573,0.49-0.84,0.75c0.315,1.971,2.401,7.501,15.775,9.261
	c9.225,1.215,19.874-0.236,30.173-1.637C113.63,23.578,121.413,22.519,128.72,22.519z M141.378,170.72
	c-0.64,0-1.28-0.244-1.768-0.732l-6.502-6.502c-1.097-1.097-2.556-1.701-4.107-1.701c-1.551,0-3.01,0.604-4.107,1.701l-0.375,0.375
	c-2.041,2.042-4.755,3.166-7.643,3.166s-5.602-1.124-7.643-3.166l-0.178-0.179c-1.097-1.097-2.556-1.701-4.107-1.701
	s-3.01,0.604-4.107,1.701c-2.042,2.042-4.756,3.166-7.643,3.166s-5.602-1.124-7.643-3.166c-1.097-1.097-2.556-1.701-4.107-1.701
	s-3.01,0.604-4.107,1.701l-5.875,5.875c-0.976,0.977-2.56,0.977-3.535,0c-0.977-0.977-0.977-2.559,0-3.535l5.875-5.875
	c2.041-2.042,4.755-3.166,7.643-3.166s5.602,1.124,7.643,3.166c1.097,1.097,2.556,1.701,4.107,1.701s3.01-0.604,4.107-1.701
	c2.042-2.042,4.756-3.166,7.643-3.166s5.602,1.124,7.643,3.166l0.178,0.179c1.097,1.097,2.556,1.701,4.107,1.701
	s3.01-0.604,4.107-1.701l0.375-0.375c2.041-2.042,4.755-3.166,7.643-3.166c2.887,0,5.602,1.124,7.643,3.166l6.501,6.502
	c0.977,0.977,0.977,2.559,0,3.535C142.658,170.476,142.018,170.72,141.378,170.72z M130.079,128.742
	c-9.801,0-17.775-7.974-17.775-17.775c0-9.801,7.974-17.774,17.775-17.774s17.775,7.974,17.775,17.774
	C147.854,120.768,139.88,128.742,130.079,128.742z M130.079,98.192c-7.044,0-12.775,5.73-12.775,12.774s5.731,12.775,12.775,12.775
	c7.044,0,12.775-5.731,12.775-12.775S137.123,98.192,130.079,98.192z M94.528,120.778H67.702c-0.914,0-1.755-0.499-2.194-1.301
	c-1.418-2.596-2.168-5.538-2.168-8.51c0-9.802,7.974-17.775,17.775-17.775s17.775,7.974,17.775,17.775
	c0,2.972-0.75,5.914-2.168,8.51C96.283,120.279,95.442,120.778,94.528,120.778z M69.279,115.778h23.672
	c0.617-1.52,0.939-3.158,0.939-4.811c0-7.044-5.731-12.775-12.775-12.775s-12.775,5.731-12.775,12.775
	C68.34,112.62,68.662,114.258,69.279,115.778z M130.079,113.716c-1.381,0-2.5-1.119-2.5-2.5v-0.25c0-1.381,1.119-2.5,2.5-2.5
	s2.5,1.119,2.5,2.5v0.25C132.579,112.597,131.46,113.716,130.079,113.716z M81.115,113.716c-1.381,0-2.5-1.119-2.5-2.5v-0.25
	c0-1.381,1.119-2.5,2.5-2.5s2.5,1.119,2.5,2.5v0.25C83.615,112.597,82.496,113.716,81.115,113.716z M70.981,88.685
	c-1.134,0-2.161-0.777-2.432-1.929c-0.316-1.344,0.517-2.689,1.861-3.006l20.265-4.766c1.347-0.313,2.69,0.519,3.006,1.861
	c0.316,1.344-0.517,2.689-1.861,3.006l-20.265,4.766C71.363,88.663,71.17,88.685,70.981,88.685z M138.934,81.747
	c-0.443,0-0.891-0.117-1.297-0.364l-17.782-10.823c-1.18-0.718-1.554-2.256-0.836-3.436c0.718-1.179,2.256-1.553,3.436-0.836
	l17.782,10.823c1.179,0.718,1.554,2.256,0.836,3.436C140.602,81.32,139.778,81.747,138.934,81.747z"/>
<g>
</g>
<g>
</g>
<g>
</g>
<g>
</g>
<g>
</g>
<g>
</g>
<g>
</g>
<g>
</g>
<g>
</g>
<g>
</g>
<g>
</g>
<g>
</g>
<g>
</g>
<g>
</g>
<g>
</g>
</svg>
