<?xml version="1.0" encoding="iso-8859-1"?>
<!-- Generator: Adobe Illustrator 17.1.0, SVG Export Plug-In . SVG Version: 6.00 Build 0)  -->
<!DOCTYPE svg PUBLIC "-//W3C//DTD SVG 1.1//EN" "http://www.w3.org/Graphics/SVG/1.1/DTD/svg11.dtd">
<svg version="1.1" id="Capa_1" xmlns="http://www.w3.org/2000/svg" xmlns:xlink="http://www.w3.org/1999/xlink" x="0px" y="0px"
	 viewBox="0 0 211.076 211.076" style="enable-background:new 0 0 211.076 211.076;" xml:space="preserve">
<path d="M105.47,211.076c-37.511,0-68.028-30.517-68.028-68.028v-0.988h-1.487c-11.568,0-20.979-9.411-20.979-20.979v-9.606
	c0-11.568,9.411-20.979,20.979-20.979h1.487V59.579c0-11.853,5.485-23.12,14.753-30.465c-0.333-1.606-0.506-3.262-0.506-4.942
	c0-4.32,2.3-8.756,6.153-11.868c0.039-0.031,0.078-0.061,0.118-0.09l2.334-1.666c0.083-0.059,0.169-0.113,0.258-0.162
	c0.364-0.198,0.775-0.446,1.246-0.729c2.199-1.319,5.522-3.313,11.018-4.989c7.577-2.485,15.576-3.941,24.415-4.437
	c33.882-1.898,64.037,8.071,73.364,24.252c1.196,1.934,2.008,3.417,2.796,5.111c7.619,16.388,1.42,33.589,0.105,36.862v24.04h1.624
	c11.568,0,20.979,9.411,20.979,20.979v9.606c0,11.568-9.411,20.979-20.979,20.979h-1.624v0.988
	C173.497,180.559,142.981,211.076,105.47,211.076z M42.443,139.561v3.488c0,34.754,28.274,63.028,63.027,63.028
	c34.753,0,63.027-28.274,63.027-63.028v-21.191h-4.429c-0.668,0-1.309-0.267-1.777-0.742c-0.47-0.475-0.73-1.118-0.723-1.786
	c0.004-0.29,0.303-29.081-1.926-37.996c-2.013-8.056-7.763-11.271-8.006-11.405c-0.596-0.325-1.041-0.882-1.221-1.536
	c-0.18-0.655-0.092-1.358,0.254-1.941c0.033-0.055,3.432-5.876,3.582-11.458c0.023-0.88-3.687-3.055-8.547-4.405
	c-5.295-1.1-9.336-1.031-9.437-1.029c-0.021,0-0.042,0.001-0.063,0.001h-52c-7.521,0-14.019-1.292-19.313-3.842
	c-0.886-0.426-1.738-0.908-2.554-1.439c-2.334,2.7-5.657,7.304-5.648,10.775c0.014,5.525,3.523,11.304,3.558,11.362
	c0.361,0.588,0.464,1.301,0.283,1.967s-0.63,1.229-1.24,1.552c-0.231,0.126-5.979,3.342-7.994,11.398
	c-2.229,8.915-1.929,37.706-1.925,37.996c0.007,0.668-0.252,1.311-0.722,1.786s-1.11,0.742-1.778,0.742h-4.429V139.561z
	 M173.634,137.061h1.487c8.812,0,15.979-7.168,15.979-15.979v-9.606c0-8.811-7.168-15.979-15.979-15.979h-1.487V137.061z
	 M35.955,95.496c-8.811,0-15.979,7.168-15.979,15.979v9.606c0,8.811,7.168,15.979,15.979,15.979h1.487V95.496H35.955z
	 M166.584,116.858h1.913V66.593c-2.177-4.749-5.54-8.176-9.286-10.647c-0.299,4.374-1.991,8.562-3.147,10.971
	c2.526,1.972,6.664,6.137,8.431,13.204C166.492,88.117,166.608,109.459,166.584,116.858z M42.443,116.858h1.913
	c-0.023-7.398,0.092-28.741,2.091-36.737c1.761-7.043,5.877-11.204,8.404-13.185c-1.272-2.577-3.149-7.171-3.161-11.869
	c-0.013-5.307,4.219-11.005,6.778-13.963c-1.923-1.964-3.501-4.274-4.648-6.826C46.643,40.668,42.443,49.9,42.443,59.579V116.858z
	 M136.651,44.477c3.392,0,23.563,0.639,33.743,15.312c0.354-1.348,0.71-2.915,1.002-4.647c-2.934-2.858-13.531-12.211-29.298-15.208
	c-11.023-2.096-24.042-1.284-36.633-0.499c-9.361,0.584-19.039,1.188-27.616,0.536c-8.314-0.631-14.077-2.8-18.019-5.227
	c1.808,2.758,4.322,5.016,7.343,6.451c4.592,2.182,10.319,3.288,17.021,3.288h52C136.259,44.48,136.413,44.477,136.651,44.477z
	 M125.357,33.599c6.125,0,12.095,0.361,17.675,1.422c13.856,2.634,23.881,9.605,29.016,13.949c0.089-2.2,0.025-4.528-0.271-6.914
	c-6.969-6.977-19.329-11.841-35.825-14.09c-8.736-1.189-18.695,0.165-29.238,1.599c-10.626,1.446-21.612,2.941-31.5,1.64
	c-10.966-1.443-15.992-5.392-18.282-8.933c-0.158,0.638-0.241,1.275-0.241,1.898c0,0.235,0.004,0.47,0.013,0.704
	c0.812,1.573,5.431,8.886,21.525,10.109c8.231,0.625,17.312,0.059,26.926-0.541C111.869,34.025,118.704,33.599,125.357,33.599z
	 M128.72,22.519c2.713,0,5.358,0.146,7.906,0.493c13.973,1.904,25.271,5.678,33.214,11.041c-0.293-0.787-0.62-1.57-0.982-2.351
	c-0.704-1.514-1.439-2.854-2.538-4.627c-0.021-0.034-0.041-0.068-0.061-0.103c-8.284-14.371-37.19-23.519-68.747-21.749
	c-8.398,0.471-15.979,1.848-23.176,4.208c-0.031,0.01-0.072,0.022-0.103,0.031c-4.866,1.485-7.872,3.289-9.862,4.482
	c-0.481,0.289-0.908,0.544-1.291,0.757l-2.152,1.536c-0.292,0.239-0.573,0.489-0.84,0.75c0.314,1.97,2.399,7.501,15.775,9.261
	c9.223,1.213,19.873-0.236,30.173-1.637C113.63,23.578,121.413,22.519,128.72,22.519z M105.538,184.965
	c-24.796,0-44.97-20.173-44.97-44.97c0-1.381,1.119-2.5,2.5-2.5c1.381,0,2.5,1.119,2.5,2.5c0,22.04,17.93,39.97,39.97,39.97
	c22.039,0,39.97-17.93,39.97-39.97c0-1.381,1.119-2.5,2.5-2.5s2.5,1.119,2.5,2.5C150.508,164.792,130.335,184.965,105.538,184.965z
	 M66.131,111.468c-0.294,0-0.594-0.052-0.886-0.163c-1.291-0.489-1.941-1.933-1.452-3.224c0.144-0.378,3.644-9.263,15.098-9.263
	c11.414,0,15.119,8.835,15.271,9.211c0.518,1.28-0.101,2.737-1.38,3.255c-1.275,0.516-2.726-0.096-3.249-1.366
	c-0.13-0.304-2.72-6.101-10.642-6.101c-8.041,0-10.399,5.975-10.422,6.035C68.09,110.852,67.139,111.468,66.131,111.468z
	 M145.316,111.468c-0.983,0-1.915-0.584-2.313-1.548c-0.126-0.295-2.714-6.102-10.642-6.102c-7.918,0-10.331,5.808-10.43,6.056
	c-0.51,1.273-1.952,1.91-3.233,1.412c-1.278-0.498-1.921-1.922-1.435-3.205c0.144-0.378,3.645-9.263,15.098-9.263
	c11.415,0,15.119,8.835,15.271,9.212c0.518,1.28-0.101,2.737-1.38,3.255C145.944,111.409,145.627,111.468,145.316,111.468z
	 M141.123,86.073c-0.438,0-0.879-0.115-1.281-0.355l-17.333-10.366c-1.185-0.708-1.571-2.244-0.862-3.429
	c0.709-1.186,2.245-1.57,3.429-0.862l17.333,10.366c1.185,0.708,1.571,2.244,0.862,3.429
	C142.803,85.638,141.973,86.073,141.123,86.073z M70.349,86.047c-0.851,0-1.68-0.434-2.148-1.217
	c-0.709-1.185-0.323-2.72,0.862-3.429l17.333-10.366c1.186-0.708,2.72-0.322,3.429,0.862c0.709,1.185,0.323,2.72-0.862,3.429
	L71.63,85.692C71.228,85.932,70.786,86.047,70.349,86.047z"/>
<g>
</g>
<g>
</g>
<g>
</g>
<g>
</g>
<g>
</g>
<g>
</g>
<g>
</g>
<g>
</g>
<g>
</g>
<g>
</g>
<g>
</g>
<g>
</g>
<g>
</g>
<g>
</g>
<g>
</g>
</svg>
