<?xml version="1.0" encoding="iso-8859-1"?>
<!-- Generator: Adobe Illustrator 17.1.0, SVG Export Plug-In . SVG Version: 6.00 Build 0)  -->
<!DOCTYPE svg PUBLIC "-//W3C//DTD SVG 1.1//EN" "http://www.w3.org/Graphics/SVG/1.1/DTD/svg11.dtd">
<svg version="1.1" id="Capa_1" xmlns="http://www.w3.org/2000/svg" xmlns:xlink="http://www.w3.org/1999/xlink" x="0px" y="0px"
	 viewBox="0 0 211.077 211.077" style="enable-background:new 0 0 211.077 211.077;" xml:space="preserve">
<path d="M105.47,211.077c-37.51,0-68.027-30.517-68.027-68.027v-0.987h-1.488c-11.568,0-20.979-9.411-20.979-20.979v-9.606
	c0-11.567,9.411-20.979,20.979-20.979h1.488V59.58c0-11.854,5.485-23.12,14.753-30.465c-0.333-1.607-0.506-3.262-0.506-4.943
	c0-4.318,2.3-8.755,6.153-11.867c0.039-0.031,0.078-0.062,0.118-0.091l2.334-1.666c0.083-0.059,0.169-0.112,0.258-0.161
	c0.363-0.197,0.774-0.445,1.245-0.728c2.199-1.319,5.523-3.313,11.019-4.99c7.577-2.485,15.576-3.941,24.415-4.438
	c33.891-1.902,64.061,8.079,73.374,24.27c0.004,0.007,0.007,0.013,0.011,0.02c1.206,1.952,2.003,3.414,2.775,5.075
	c7.619,16.388,1.42,33.589,0.105,36.862v24.04h1.624c11.568,0,20.979,9.411,20.979,20.979v9.606
	c0,11.568-9.411,20.979-20.979,20.979h-1.624v0.987C173.498,180.56,142.981,211.077,105.47,211.077z M42.443,139.562v3.487
	c0,34.753,28.274,63.027,63.027,63.027c34.753,0,63.027-28.274,63.027-63.027v-21.19h-4.429c-0.668,0-1.309-0.268-1.777-0.742
	c-0.47-0.476-0.73-1.118-0.723-1.786c0.004-0.29,0.303-29.082-1.926-37.997c-2.013-8.056-7.763-11.271-8.006-11.404
	c-0.597-0.325-1.041-0.882-1.221-1.537c-0.18-0.654-0.092-1.357,0.255-1.941c0.032-0.055,3.431-5.876,3.581-11.457
	c0.023-0.88-3.689-3.057-8.553-4.406c-5.291-1.099-9.327-1.027-9.431-1.027c-0.021,0.001-0.042,0.001-0.063,0.001h-52
	c-7.519,0-14.017-1.292-19.313-3.841c-0.886-0.427-1.739-0.908-2.555-1.44c-2.334,2.7-5.657,7.304-5.648,10.775
	c0.014,5.524,3.523,11.303,3.559,11.36c0.361,0.589,0.464,1.302,0.283,1.968s-0.63,1.229-1.24,1.553
	c-0.231,0.126-5.98,3.342-7.994,11.397c-2.229,8.915-1.929,37.707-1.925,37.997c0.007,0.668-0.252,1.311-0.722,1.786
	c-0.47,0.475-1.11,0.742-1.778,0.742h-4.429V139.562z M173.634,137.062h1.487c8.812,0,15.979-7.168,15.979-15.979v-9.606
	c0-8.811-7.168-15.979-15.979-15.979h-1.487V137.062z M35.955,95.498c-8.811,0-15.979,7.168-15.979,15.979v9.606
	c0,8.812,7.168,15.979,15.979,15.979h1.488V95.498H35.955z M166.584,116.859h1.913V66.594c-2.177-4.749-5.54-8.176-9.286-10.647
	c-0.299,4.373-1.991,8.562-3.147,10.971c2.526,1.973,6.664,6.138,8.431,13.204C166.493,88.118,166.608,109.461,166.584,116.859z
	 M42.443,116.859h1.913c-0.023-7.398,0.092-28.741,2.091-36.738c1.761-7.043,5.876-11.204,8.404-13.185
	c-1.272-2.576-3.15-7.171-3.162-11.869c-0.013-5.307,4.219-11.004,6.778-13.963c-1.923-1.964-3.501-4.273-4.648-6.826
	C46.643,40.669,42.443,49.9,42.443,59.58V116.859z M136.651,44.477c3.389,0,23.563,0.639,33.743,15.312
	c0.354-1.348,0.71-2.915,1.002-4.646c-2.934-2.858-13.531-12.211-29.298-15.209c-11.021-2.096-24.042-1.284-36.633-0.499
	c-9.361,0.585-19.039,1.188-27.616,0.536c-8.314-0.632-14.077-2.801-18.019-5.228c1.808,2.759,4.322,5.017,7.344,6.452
	c4.59,2.181,10.317,3.287,17.021,3.287h52C136.258,44.48,136.414,44.477,136.651,44.477z M125.357,33.6
	c6.125,0,12.095,0.361,17.675,1.422c13.856,2.635,23.881,9.605,29.016,13.95c0.089-2.201,0.025-4.529-0.271-6.914
	c-6.97-6.977-19.329-11.842-35.825-14.09c-8.736-1.191-18.695,0.164-29.238,1.599c-10.626,1.445-21.614,2.94-31.5,1.64
	c-10.966-1.442-15.992-5.392-18.282-8.933c-0.158,0.638-0.241,1.275-0.241,1.898c0,0.235,0.004,0.471,0.013,0.704
	c0.812,1.572,5.431,8.887,21.525,10.108c8.231,0.627,17.312,0.059,26.926-0.54C111.87,34.025,118.705,33.6,125.357,33.6z
	 M128.72,22.52c2.713,0,5.358,0.146,7.906,0.492c13.972,1.904,25.27,5.679,33.214,11.042c-0.293-0.786-0.62-1.57-0.982-2.352
	c-0.702-1.511-1.438-2.852-2.538-4.628c-0.02-0.03-0.039-0.064-0.058-0.099c-8.29-14.376-37.202-23.52-68.75-21.753
	c-8.398,0.472-15.979,1.849-23.176,4.209c-0.036,0.013-0.075,0.024-0.112,0.034c-4.903,1.51-7.879,3.296-9.854,4.48
	c-0.48,0.288-0.907,0.543-1.289,0.756l-2.152,1.535c-0.292,0.239-0.573,0.49-0.84,0.75c0.315,1.971,2.401,7.501,15.775,9.261
	c9.225,1.216,19.874-0.235,30.173-1.637C113.63,23.579,121.414,22.52,128.72,22.52z M129.437,176.374H81.504
	c-1.381,0-2.5-1.119-2.5-2.5c0-4.773,1.271-9.256,3.49-13.127c0.038-0.072,0.079-0.144,0.124-0.213
	c4.598-7.846,13.12-13.126,22.852-13.126c9.738,0,18.266,5.287,22.861,13.141c0.038,0.06,0.073,0.12,0.105,0.183
	c2.226,3.875,3.5,8.363,3.5,13.143C131.937,175.255,130.818,176.374,129.437,176.374z M84.149,171.374h42.644
	c-0.289-2.48-1.002-4.832-2.065-6.982H86.214C85.151,166.542,84.438,168.893,84.149,171.374z M89.639,159.392h31.663
	c-3.928-4.29-9.571-6.983-15.832-6.983S93.567,155.102,89.639,159.392z M57.416,156.767c-5.156,0-9.352-4.195-9.352-9.352
	c0-1.609,0.421-3.198,1.219-4.604l5.866-12.621c0.41-0.882,1.294-1.446,2.267-1.446s1.857,0.564,2.267,1.446l5.866,12.622
	c0.797,1.404,1.218,2.994,1.218,4.604C66.768,152.571,62.572,156.767,57.416,156.767z M57.416,137.175l-3.645,7.843
	c-0.033,0.071-0.07,0.142-0.11,0.21c-0.396,0.677-0.597,1.412-0.597,2.188c0,2.399,1.952,4.352,4.352,4.352s4.352-1.952,4.352-4.352
	c0-0.775-0.201-1.512-0.597-2.188c-0.04-0.068-0.077-0.139-0.11-0.21L57.416,137.175z M128.826,130.742c-0.022,0-0.044,0-0.066,0
	c-9.802-0.037-17.745-8.042-17.708-17.843c0.019-4.747,1.884-9.204,5.254-12.549c3.353-3.328,7.797-5.158,12.518-5.158
	c0.023,0,0.047,0,0.07,0c4.747,0.018,9.204,1.883,12.549,5.253s5.177,7.841,5.159,12.588c0,0.001,0,0.001,0,0.001
	C146.564,122.811,138.595,130.742,128.826,130.742z M128.825,100.192c-7.021,0-12.747,5.698-12.773,12.727
	c-0.027,7.044,5.682,12.796,12.727,12.823c0.016,0,0.032,0,0.048,0c7.022,0,12.749-5.699,12.775-12.728
	c0.013-3.412-1.304-6.625-3.708-9.047c-2.403-2.422-5.606-3.763-9.019-3.775C128.858,100.192,128.84,100.192,128.825,100.192z
	 M80.729,130.742c-0.022,0-0.044,0-0.067,0c-9.801-0.037-17.745-8.042-17.708-17.843c0.018-4.747,1.884-9.204,5.253-12.549
	c3.354-3.328,7.797-5.158,12.519-5.158c0.023,0,0.046,0,0.07,0c4.747,0.018,9.204,1.883,12.549,5.253
	c3.344,3.37,5.177,7.841,5.159,12.589l0,0C98.466,122.811,90.499,130.742,80.729,130.742z M80.727,100.192
	c-3.394,0-6.587,1.315-8.997,3.707c-2.422,2.404-3.763,5.607-3.776,9.02c-0.026,7.044,5.683,12.796,12.727,12.823
	c7.087,0.04,12.796-5.684,12.823-12.728c0.013-3.412-1.304-6.625-3.708-9.047s-5.607-3.763-9.019-3.775
	C80.761,100.192,80.744,100.192,80.727,100.192z M128.825,115.717c-0.003,0-0.007,0-0.01,0c-1.381-0.006-2.496-1.129-2.49-2.51
	l0.001-0.25c0.006-1.377,1.124-2.49,2.5-2.49c0.003,0,0.007,0,0.01,0c1.381,0.006,2.495,1.129,2.49,2.51l-0.001,0.25
	C131.319,114.603,130.201,115.717,128.825,115.717z M80.728,115.717c-0.003,0-0.006,0-0.01,0c-1.381-0.006-2.496-1.129-2.49-2.51
	l0.001-0.25c0.005-1.377,1.124-2.49,2.5-2.49c0.003,0,0.006,0,0.01,0c1.381,0.006,2.496,1.129,2.49,2.51l-0.001,0.25
	C83.223,114.603,82.104,115.717,80.728,115.717z M139.376,87.977c-0.246,0-0.496-0.037-0.744-0.114l-19.878-6.185
	c-1.318-0.41-2.054-1.812-1.644-3.13c0.41-1.317,1.809-2.055,3.13-1.644l19.878,6.185c1.318,0.41,2.054,1.812,1.644,3.13
	C141.429,87.29,140.442,87.977,139.376,87.977z M71.084,87.666c-1.095,0-2.101-0.726-2.408-1.833
	c-0.369-1.331,0.411-2.708,1.741-3.077l20.061-5.562c1.331-0.366,2.708,0.41,3.077,1.741c0.369,1.331-0.411,2.708-1.741,3.077
	l-20.061,5.562C71.53,87.636,71.305,87.666,71.084,87.666z"/>
<g>
</g>
<g>
</g>
<g>
</g>
<g>
</g>
<g>
</g>
<g>
</g>
<g>
</g>
<g>
</g>
<g>
</g>
<g>
</g>
<g>
</g>
<g>
</g>
<g>
</g>
<g>
</g>
<g>
</g>
</svg>
